<?xml version="1.0" encoding="UTF-8" standalone="no"?>
<!DOCTYPE svg PUBLIC "-//W3C//DTD SVG 1.1//EN"
 "http://www.w3.org/Graphics/SVG/1.1/DTD/svg11.dtd">
<!-- Generated by graphviz version 2.47.0 (20210316.0004)
 -->
<!-- Title: dependencies Pages: 1 -->
<svg width="1619pt" height="211pt"
 viewBox="0.00 0.00 1619.00 211.00" xmlns="http://www.w3.org/2000/svg" xmlns:xlink="http://www.w3.org/1999/xlink">
<g id="graph0" class="graph" transform="scale(1 1) rotate(0) translate(4 207)">
<title>dependencies</title>
<polygon fill="white" stroke="transparent" points="-4,4 -4,-207 1615,-207 1615,4 -4,4"/>
<text text-anchor="start" x="784.51" y="-42.4" font-family="Times-12" font-weight="bold" font-size="14.00">Legend</text>
<polygon fill="#ffffb3" stroke="transparent" points="571.5,-10 571.5,-30 591.5,-30 591.5,-10 571.5,-10"/>
<text text-anchor="start" x="595.13" y="-15.4" font-family="Times-12" font-size="14.00"> &#160;Declarations</text>
<polygon fill="#8dd3c7" stroke="transparent" points="684.5,-10 684.5,-30 704.5,-30 704.5,-10 684.5,-10"/>
<text text-anchor="start" x="708.23" y="-15.4" font-family="Times-12" font-size="14.00"> &#160;Module</text>
<polygon fill="#80b1d3" stroke="transparent" points="770.5,-10 770.5,-30 790.5,-30 790.5,-10 770.5,-10"/>
<text text-anchor="start" x="794.28" y="-15.4" font-family="Times-12" font-size="14.00"> &#160;Bootstrap</text>
<polygon fill="#fdb462" stroke="transparent" points="867.5,-10 867.5,-30 887.5,-30 887.5,-10 867.5,-10"/>
<text text-anchor="start" x="891.17" y="-15.4" font-family="Times-12" font-size="14.00"> &#160;Providers</text>
<polygon fill="#fb8072" stroke="transparent" points="963.5,-10 963.5,-30 983.5,-30 983.5,-10 963.5,-10"/>
<text text-anchor="start" x="987.23" y="-15.4" font-family="Times-12" font-size="14.00"> &#160;Exports</text>
<g id="clust1" class="cluster">
<title>cluster_AppModule</title>
<polygon fill="none" stroke="black" stroke-dasharray="1,5" points="8,-70 8,-195 1603,-195 1603,-70 8,-70"/>
</g>
<g id="clust3" class="cluster">
<title>cluster_AppModule_imports</title>
<polygon fill="none" stroke="black" points="154,-78 154,-130 1595,-130 1595,-78 154,-78"/>
</g>
<g id="clust6" class="cluster">
<title>cluster_AppModule_providers</title>
<polygon fill="none" stroke="black" points="16,-78 16,-130 146,-130 146,-78 16,-78"/>
</g>
<!-- AuthModule -->
<g id="node1" class="node">
<title>AuthModule</title>
<polygon fill="#8dd3c7" stroke="black" points="1586.55,-122 1583.55,-126 1562.55,-126 1559.55,-122 1499.45,-122 1499.45,-86 1586.55,-86 1586.55,-122"/>
<text text-anchor="middle" x="1543" y="-99.8" font-family="Times,serif" font-size="14.00">AuthModule</text>
</g>
<!-- AppModule -->
<g id="node13" class="node">
<title>AppModule</title>
<polygon fill="#8dd3c7" stroke="black" points="882.66,-187 879.66,-191 858.66,-191 855.66,-187 799.34,-187 799.34,-151 882.66,-151 882.66,-187"/>
<text text-anchor="middle" x="841" y="-164.8" font-family="Times,serif" font-size="14.00">AppModule</text>
</g>
<!-- AuthModule&#45;&gt;AppModule -->
<g id="edge1" class="edge">
<title>AuthModule&#45;&gt;AppModule</title>
<path fill="none" stroke="black" d="M1543,-122.09C1543,-145.13 1543,-182 1543,-182 1543,-182 892.81,-182 892.81,-182"/>
<polygon fill="black" stroke="black" points="892.81,-178.5 882.81,-182 892.81,-185.5 892.81,-178.5"/>
</g>
<!-- CompaniesModule -->
<g id="node2" class="node">
<title>CompaniesModule</title>
<polygon fill="#8dd3c7" stroke="black" points="1481.04,-122 1478.04,-126 1457.04,-126 1454.04,-122 1358.96,-122 1358.96,-86 1481.04,-86 1481.04,-122"/>
<text text-anchor="middle" x="1420" y="-99.8" font-family="Times,serif" font-size="14.00">CompaniesModule</text>
</g>
<!-- CompaniesModule&#45;&gt;AppModule -->
<g id="edge2" class="edge">
<title>CompaniesModule&#45;&gt;AppModule</title>
<path fill="none" stroke="black" d="M1420,-122.04C1420,-143.66 1420,-177 1420,-177 1420,-177 893.11,-177 893.11,-177"/>
<polygon fill="black" stroke="black" points="893.11,-173.5 883.11,-177 893.11,-180.5 893.11,-173.5"/>
</g>
<!-- DatabasesModule -->
<g id="node3" class="node">
<title>DatabasesModule</title>
<polygon fill="#8dd3c7" stroke="black" points="1341.29,-122 1338.29,-126 1317.29,-126 1314.29,-122 1224.71,-122 1224.71,-86 1341.29,-86 1341.29,-122"/>
<text text-anchor="middle" x="1283" y="-99.8" font-family="Times,serif" font-size="14.00">DatabasesModule</text>
</g>
<!-- DatabasesModule&#45;&gt;AppModule -->
<g id="edge3" class="edge">
<title>DatabasesModule&#45;&gt;AppModule</title>
<path fill="none" stroke="black" d="M1283,-122.22C1283,-142.37 1283,-172 1283,-172 1283,-172 892.98,-172 892.98,-172"/>
<polygon fill="black" stroke="black" points="892.98,-168.5 882.98,-172 892.98,-175.5 892.98,-168.5"/>
</g>
<!-- FilesModule -->
<g id="node4" class="node">
<title>FilesModule</title>
<polygon fill="#8dd3c7" stroke="black" points="1206.27,-122 1203.27,-126 1182.27,-126 1179.27,-122 1119.73,-122 1119.73,-86 1206.27,-86 1206.27,-122"/>
<text text-anchor="middle" x="1163" y="-99.8" font-family="Times,serif" font-size="14.00">FilesModule</text>
</g>
<!-- FilesModule&#45;&gt;AppModule -->
<g id="edge4" class="edge">
<title>FilesModule&#45;&gt;AppModule</title>
<path fill="none" stroke="black" d="M1163,-122.22C1163,-140.83 1163,-167 1163,-167 1163,-167 892.77,-167 892.77,-167"/>
<polygon fill="black" stroke="black" points="892.77,-163.5 882.77,-167 892.77,-170.5 892.77,-163.5"/>
</g>
<!-- HealthModule -->
<g id="node5" class="node">
<title>HealthModule</title>
<polygon fill="#8dd3c7" stroke="black" points="1101.37,-122 1098.37,-126 1077.37,-126 1074.37,-122 1004.63,-122 1004.63,-86 1101.37,-86 1101.37,-122"/>
<text text-anchor="middle" x="1053" y="-99.8" font-family="Times,serif" font-size="14.00">HealthModule</text>
</g>
<!-- HealthModule&#45;&gt;AppModule -->
<g id="edge5" class="edge">
<title>HealthModule&#45;&gt;AppModule</title>
<path fill="none" stroke="black" d="M1053,-122.03C1053,-139.06 1053,-162 1053,-162 1053,-162 892.88,-162 892.88,-162"/>
<polygon fill="black" stroke="black" points="892.88,-158.5 882.88,-162 892.88,-165.5 892.88,-158.5"/>
</g>
<!-- JobsModule -->
<g id="node6" class="node">
<title>JobsModule</title>
<polygon fill="#8dd3c7" stroke="black" points="986.44,-122 983.44,-126 962.44,-126 959.44,-122 901.56,-122 901.56,-86 986.44,-86 986.44,-122"/>
<text text-anchor="middle" x="944" y="-99.8" font-family="Times,serif" font-size="14.00">JobsModule</text>
</g>
<!-- JobsModule&#45;&gt;AppModule -->
<g id="edge6" class="edge">
<title>JobsModule&#45;&gt;AppModule</title>
<path fill="none" stroke="black" d="M944,-122.24C944,-137.57 944,-157 944,-157 944,-157 892.89,-157 892.89,-157"/>
<polygon fill="black" stroke="black" points="892.89,-153.5 882.89,-157 892.89,-160.5 892.89,-153.5"/>
</g>
<!-- MailModule -->
<g id="node7" class="node">
<title>MailModule</title>
<polygon fill="#8dd3c7" stroke="black" points="883.99,-122 880.99,-126 859.99,-126 856.99,-122 798.01,-122 798.01,-86 883.99,-86 883.99,-122"/>
<text text-anchor="middle" x="841" y="-99.8" font-family="Times,serif" font-size="14.00">MailModule</text>
</g>
<!-- MailModule&#45;&gt;AppModule -->
<g id="edge7" class="edge">
<title>MailModule&#45;&gt;AppModule</title>
<path fill="none" stroke="black" d="M841,-122.11C841,-122.11 841,-140.99 841,-140.99"/>
<polygon fill="black" stroke="black" points="837.5,-140.99 841,-150.99 844.5,-140.99 837.5,-140.99"/>
</g>
<!-- PermissionsModule -->
<g id="node8" class="node">
<title>PermissionsModule</title>
<polygon fill="#8dd3c7" stroke="black" points="779.71,-122 776.71,-126 755.71,-126 752.71,-122 652.29,-122 652.29,-86 779.71,-86 779.71,-122"/>
<text text-anchor="middle" x="716" y="-99.8" font-family="Times,serif" font-size="14.00">PermissionsModule</text>
</g>
<!-- PermissionsModule&#45;&gt;AppModule -->
<g id="edge8" class="edge">
<title>PermissionsModule&#45;&gt;AppModule</title>
<path fill="none" stroke="black" d="M716,-122.24C716,-137.57 716,-157 716,-157 716,-157 789.03,-157 789.03,-157"/>
<polygon fill="black" stroke="black" points="789.03,-160.5 799.03,-157 789.03,-153.5 789.03,-160.5"/>
</g>
<!-- ResumesModule -->
<g id="node9" class="node">
<title>ResumesModule</title>
<polygon fill="#8dd3c7" stroke="black" points="634.1,-122 631.1,-126 610.1,-126 607.1,-122 523.9,-122 523.9,-86 634.1,-86 634.1,-122"/>
<text text-anchor="middle" x="579" y="-99.8" font-family="Times,serif" font-size="14.00">ResumesModule</text>
</g>
<!-- ResumesModule&#45;&gt;AppModule -->
<g id="edge9" class="edge">
<title>ResumesModule&#45;&gt;AppModule</title>
<path fill="none" stroke="black" d="M579,-122.03C579,-139.06 579,-162 579,-162 579,-162 789.2,-162 789.2,-162"/>
<polygon fill="black" stroke="black" points="789.2,-165.5 799.2,-162 789.2,-158.5 789.2,-165.5"/>
</g>
<!-- RolesModule -->
<g id="node10" class="node">
<title>RolesModule</title>
<polygon fill="#8dd3c7" stroke="black" points="505.94,-122 502.94,-126 481.94,-126 478.94,-122 414.06,-122 414.06,-86 505.94,-86 505.94,-122"/>
<text text-anchor="middle" x="460" y="-99.8" font-family="Times,serif" font-size="14.00">RolesModule</text>
</g>
<!-- RolesModule&#45;&gt;AppModule -->
<g id="edge10" class="edge">
<title>RolesModule&#45;&gt;AppModule</title>
<path fill="none" stroke="black" d="M460,-122.22C460,-140.83 460,-167 460,-167 460,-167 789.14,-167 789.14,-167"/>
<polygon fill="black" stroke="black" points="789.14,-170.5 799.14,-167 789.14,-163.5 789.14,-170.5"/>
</g>
<!-- SubscribersModule -->
<g id="node11" class="node">
<title>SubscribersModule</title>
<polygon fill="#8dd3c7" stroke="black" points="396.36,-122 393.36,-126 372.36,-126 369.36,-122 271.64,-122 271.64,-86 396.36,-86 396.36,-122"/>
<text text-anchor="middle" x="334" y="-99.8" font-family="Times,serif" font-size="14.00">SubscribersModule</text>
</g>
<!-- SubscribersModule&#45;&gt;AppModule -->
<g id="edge11" class="edge">
<title>SubscribersModule&#45;&gt;AppModule</title>
<path fill="none" stroke="black" d="M334,-122.22C334,-142.37 334,-172 334,-172 334,-172 789.08,-172 789.08,-172"/>
<polygon fill="black" stroke="black" points="789.08,-175.5 799.08,-172 789.08,-168.5 789.08,-175.5"/>
</g>
<!-- UsersModule -->
<g id="node12" class="node">
<title>UsersModule</title>
<polygon fill="#8dd3c7" stroke="black" points="253.92,-122 250.92,-126 229.92,-126 226.92,-122 162.08,-122 162.08,-86 253.92,-86 253.92,-122"/>
<text text-anchor="middle" x="208" y="-99.8" font-family="Times,serif" font-size="14.00">UsersModule</text>
</g>
<!-- UsersModule&#45;&gt;AppModule -->
<g id="edge12" class="edge">
<title>UsersModule&#45;&gt;AppModule</title>
<path fill="none" stroke="black" d="M208,-122.04C208,-143.66 208,-177 208,-177 208,-177 788.98,-177 788.98,-177"/>
<polygon fill="black" stroke="black" points="788.98,-180.5 798.98,-177 788.98,-173.5 788.98,-180.5"/>
</g>
<!-- AppService -->
<g id="node14" class="node">
<title>AppService</title>
<ellipse fill="#fdb462" stroke="black" cx="81" cy="-104" rx="56.74" ry="18"/>
<text text-anchor="middle" x="81" y="-99.8" font-family="Times,serif" font-size="14.00">AppService</text>
</g>
<!-- AppService&#45;&gt;AppModule -->
<g id="edge13" class="edge">
<title>AppService&#45;&gt;AppModule</title>
<path fill="none" stroke="black" d="M81,-122.09C81,-145.13 81,-182 81,-182 81,-182 789.33,-182 789.33,-182"/>
<polygon fill="black" stroke="black" points="789.33,-185.5 799.33,-182 789.33,-178.5 789.33,-185.5"/>
</g>
</g>
</svg>
