<?xml version="1.0" encoding="UTF-8" standalone="no"?>
<!DOCTYPE svg PUBLIC "-//W3C//DTD SVG 1.1//EN"
 "http://www.w3.org/Graphics/SVG/1.1/DTD/svg11.dtd">
<!-- Generated by graphviz version 2.47.0 (20210316.0004)
 -->
<!-- Title: dependencies Pages: 1 -->
<svg width="2480pt" height="306pt"
 viewBox="0.00 0.00 2480.00 306.00" xmlns="http://www.w3.org/2000/svg" xmlns:xlink="http://www.w3.org/1999/xlink">
<g id="graph0" class="graph" transform="scale(1 1) rotate(0) translate(4 302)">
<title>dependencies</title>
<polygon fill="white" stroke="transparent" points="-4,4 -4,-302 2476,-302 2476,4 -4,4"/>
<text text-anchor="start" x="1215.01" y="-42.4" font-family="Times-12" font-weight="bold" font-size="14.00">Legend</text>
<polygon fill="#ffffb3" stroke="transparent" points="1002,-10 1002,-30 1022,-30 1022,-10 1002,-10"/>
<text text-anchor="start" x="1025.63" y="-15.4" font-family="Times-12" font-size="14.00"> &#160;Declarations</text>
<polygon fill="#8dd3c7" stroke="transparent" points="1115,-10 1115,-30 1135,-30 1135,-10 1115,-10"/>
<text text-anchor="start" x="1138.73" y="-15.4" font-family="Times-12" font-size="14.00"> &#160;Module</text>
<polygon fill="#80b1d3" stroke="transparent" points="1201,-10 1201,-30 1221,-30 1221,-10 1201,-10"/>
<text text-anchor="start" x="1224.78" y="-15.4" font-family="Times-12" font-size="14.00"> &#160;Bootstrap</text>
<polygon fill="#fdb462" stroke="transparent" points="1298,-10 1298,-30 1318,-30 1318,-10 1298,-10"/>
<text text-anchor="start" x="1321.67" y="-15.4" font-family="Times-12" font-size="14.00"> &#160;Providers</text>
<polygon fill="#fb8072" stroke="transparent" points="1394,-10 1394,-30 1414,-30 1414,-10 1394,-10"/>
<text text-anchor="start" x="1417.73" y="-15.4" font-family="Times-12" font-size="14.00"> &#160;Exports</text>
<g id="clust1" class="cluster">
<title>cluster_AppModule</title>
<polygon fill="none" stroke="black" stroke-dasharray="1,5" points="560,-146 560,-290 2048,-290 2048,-146 560,-146"/>
</g>
<g id="clust3" class="cluster">
<title>cluster_AppModule_imports</title>
<polygon fill="none" stroke="black" points="568,-154 568,-282 1902,-282 1902,-154 568,-154"/>
</g>
<g id="clust6" class="cluster">
<title>cluster_AppModule_providers</title>
<polygon fill="none" stroke="black" points="1910,-154 1910,-206 2040,-206 2040,-154 1910,-154"/>
</g>
<g id="clust7" class="cluster">
<title>cluster_AuthModule</title>
<polygon fill="none" stroke="black" stroke-dasharray="1,5" points="8,-146 8,-214 552,-214 552,-146 8,-146"/>
</g>
<g id="clust10" class="cluster">
<title>cluster_AuthModule_exports</title>
<polygon fill="none" stroke="black" points="438,-154 438,-206 544,-206 544,-154 438,-154"/>
</g>
<g id="clust12" class="cluster">
<title>cluster_AuthModule_providers</title>
<polygon fill="none" stroke="black" points="16,-154 16,-206 430,-206 430,-154 16,-154"/>
</g>
<g id="clust13" class="cluster">
<title>cluster_CompaniesModule</title>
<polygon fill="none" stroke="black" stroke-dasharray="1,5" points="322,-70 322,-138 520,-138 520,-70 322,-70"/>
</g>
<g id="clust18" class="cluster">
<title>cluster_CompaniesModule_providers</title>
<polygon fill="none" stroke="black" points="330,-78 330,-130 512,-130 512,-78 330,-78"/>
</g>
<g id="clust19" class="cluster">
<title>cluster_DatabasesModule</title>
<polygon fill="none" stroke="black" stroke-dasharray="1,5" points="528,-70 528,-138 860,-138 860,-70 528,-70"/>
</g>
<g id="clust24" class="cluster">
<title>cluster_DatabasesModule_providers</title>
<polygon fill="none" stroke="black" points="536,-78 536,-130 852,-130 852,-78 536,-78"/>
</g>
<g id="clust25" class="cluster">
<title>cluster_FilesModule</title>
<polygon fill="none" stroke="black" stroke-dasharray="1,5" points="868,-70 868,-138 1018,-138 1018,-70 868,-70"/>
</g>
<g id="clust30" class="cluster">
<title>cluster_FilesModule_providers</title>
<polygon fill="none" stroke="black" points="876,-78 876,-130 1010,-130 1010,-78 876,-78"/>
</g>
<g id="clust37" class="cluster">
<title>cluster_JobsModule</title>
<polygon fill="none" stroke="black" stroke-dasharray="1,5" points="1026,-70 1026,-138 1172,-138 1172,-70 1026,-70"/>
</g>
<g id="clust42" class="cluster">
<title>cluster_JobsModule_providers</title>
<polygon fill="none" stroke="black" points="1034,-78 1034,-130 1164,-130 1164,-78 1034,-78"/>
</g>
<g id="clust43" class="cluster">
<title>cluster_MailModule</title>
<polygon fill="none" stroke="black" stroke-dasharray="1,5" points="1180,-70 1180,-138 1328,-138 1328,-70 1180,-70"/>
</g>
<g id="clust48" class="cluster">
<title>cluster_MailModule_providers</title>
<polygon fill="none" stroke="black" points="1188,-78 1188,-130 1320,-130 1320,-78 1188,-78"/>
</g>
<g id="clust49" class="cluster">
<title>cluster_PermissionsModule</title>
<polygon fill="none" stroke="black" stroke-dasharray="1,5" points="1336,-70 1336,-138 1542,-138 1542,-70 1336,-70"/>
</g>
<g id="clust54" class="cluster">
<title>cluster_PermissionsModule_providers</title>
<polygon fill="none" stroke="black" points="1344,-78 1344,-130 1534,-130 1534,-78 1344,-78"/>
</g>
<g id="clust55" class="cluster">
<title>cluster_ResumesModule</title>
<polygon fill="none" stroke="black" stroke-dasharray="1,5" points="1550,-70 1550,-138 1732,-138 1732,-70 1550,-70"/>
</g>
<g id="clust60" class="cluster">
<title>cluster_ResumesModule_providers</title>
<polygon fill="none" stroke="black" points="1558,-78 1558,-130 1724,-130 1724,-78 1558,-78"/>
</g>
<g id="clust61" class="cluster">
<title>cluster_RolesModule</title>
<polygon fill="none" stroke="black" stroke-dasharray="1,5" points="2056,-222 2056,-290 2330,-290 2330,-222 2056,-222"/>
</g>
<g id="clust64" class="cluster">
<title>cluster_RolesModule_exports</title>
<polygon fill="none" stroke="black" points="2212,-230 2212,-282 2322,-282 2322,-230 2212,-230"/>
</g>
<g id="clust66" class="cluster">
<title>cluster_RolesModule_providers</title>
<polygon fill="none" stroke="black" points="2064,-230 2064,-282 2204,-282 2204,-230 2064,-230"/>
</g>
<g id="clust67" class="cluster">
<title>cluster_SubscribersModule</title>
<polygon fill="none" stroke="black" stroke-dasharray="1,5" points="1740,-70 1740,-138 1942,-138 1942,-70 1740,-70"/>
</g>
<g id="clust72" class="cluster">
<title>cluster_SubscribersModule_providers</title>
<polygon fill="none" stroke="black" points="1748,-78 1748,-130 1934,-130 1934,-78 1748,-78"/>
</g>
<g id="clust73" class="cluster">
<title>cluster_UsersModule</title>
<polygon fill="none" stroke="black" stroke-dasharray="1,5" points="2338,-222 2338,-290 2464,-290 2464,-222 2338,-222"/>
</g>
<g id="clust76" class="cluster">
<title>cluster_UsersModule_exports</title>
<polygon fill="none" stroke="black" points="2346,-230 2346,-282 2456,-282 2456,-230 2346,-230"/>
</g>
<!-- AuthModule -->
<g id="node1" class="node">
<title>AuthModule</title>
<polygon fill="#8dd3c7" stroke="black" points="663.55,-274 660.55,-278 639.55,-278 636.55,-274 576.45,-274 576.45,-238 663.55,-238 663.55,-274"/>
<text text-anchor="middle" x="620" y="-251.8" font-family="Times,serif" font-size="14.00">AuthModule</text>
</g>
<!-- AppModule -->
<g id="node13" class="node">
<title>AppModule</title>
<polygon fill="#8dd3c7" stroke="black" points="1993.66,-274 1990.66,-278 1969.66,-278 1966.66,-274 1910.34,-274 1910.34,-238 1993.66,-238 1993.66,-274"/>
<text text-anchor="middle" x="1952" y="-251.8" font-family="Times,serif" font-size="14.00">AppModule</text>
</g>
<!-- AuthModule&#45;&gt;AppModule -->
<g id="edge1" class="edge">
<title>AuthModule&#45;&gt;AppModule</title>
<path fill="none" stroke="black" d="M663.56,-272C663.56,-272 1900.1,-272 1900.1,-272"/>
<polygon fill="black" stroke="black" points="1900.1,-275.5 1910.1,-272 1900.1,-268.5 1900.1,-275.5"/>
</g>
<!-- AuthService  -->
<g id="node15" class="node">
<title>AuthService </title>
<polygon fill="#fb8072" stroke="black" points="535.98,-198 446.02,-198 446.02,-162 535.98,-162 535.98,-198"/>
<text text-anchor="middle" x="491" y="-175.8" font-family="Times,serif" font-size="14.00">AuthService </text>
</g>
<!-- AuthModule&#45;&gt;AuthService  -->
<g id="edge16" class="edge">
<title>AuthModule&#45;&gt;AuthService </title>
<path fill="none" stroke="black" stroke-dasharray="5,2" d="M576.33,-246C538.9,-246 491,-246 491,-246 491,-246 491,-208.03 491,-208.03"/>
<polygon fill="black" stroke="black" points="494.5,-208.03 491,-198.03 487.5,-208.03 494.5,-208.03"/>
</g>
<!-- CompaniesModule -->
<g id="node2" class="node">
<title>CompaniesModule</title>
<polygon fill="#8dd3c7" stroke="black" points="698.04,-198 695.04,-202 674.04,-202 671.04,-198 575.96,-198 575.96,-162 698.04,-162 698.04,-198"/>
<text text-anchor="middle" x="637" y="-175.8" font-family="Times,serif" font-size="14.00">CompaniesModule</text>
</g>
<!-- CompaniesModule&#45;&gt;AppModule -->
<g id="edge2" class="edge">
<title>CompaniesModule&#45;&gt;AppModule</title>
<path fill="none" stroke="black" d="M681.02,-198.01C681.02,-224.02 681.02,-269 681.02,-269 681.02,-269 1900.07,-269 1900.07,-269"/>
<polygon fill="black" stroke="black" points="1900.07,-272.5 1910.07,-269 1900.07,-265.5 1900.07,-272.5"/>
</g>
<!-- DatabasesModule -->
<g id="node3" class="node">
<title>DatabasesModule</title>
<polygon fill="#8dd3c7" stroke="black" points="832.29,-198 829.29,-202 808.29,-202 805.29,-198 715.71,-198 715.71,-162 832.29,-162 832.29,-198"/>
<text text-anchor="middle" x="774" y="-175.8" font-family="Times,serif" font-size="14.00">DatabasesModule</text>
</g>
<!-- DatabasesModule&#45;&gt;AppModule -->
<g id="edge3" class="edge">
<title>DatabasesModule&#45;&gt;AppModule</title>
<path fill="none" stroke="black" d="M774,-198.03C774,-223.51 774,-267 774,-267 774,-267 1900.07,-267 1900.07,-267"/>
<polygon fill="black" stroke="black" points="1900.07,-270.5 1910.07,-267 1900.07,-263.5 1900.07,-270.5"/>
</g>
<!-- FilesModule -->
<g id="node4" class="node">
<title>FilesModule</title>
<polygon fill="#8dd3c7" stroke="black" points="1046.27,-198 1043.27,-202 1022.27,-202 1019.27,-198 959.73,-198 959.73,-162 1046.27,-162 1046.27,-198"/>
<text text-anchor="middle" x="1003" y="-175.8" font-family="Times,serif" font-size="14.00">FilesModule</text>
</g>
<!-- FilesModule&#45;&gt;AppModule -->
<g id="edge4" class="edge">
<title>FilesModule&#45;&gt;AppModule</title>
<path fill="none" stroke="black" d="M1003,-198.2C1003,-222.36 1003,-262 1003,-262 1003,-262 1900.31,-262 1900.31,-262"/>
<polygon fill="black" stroke="black" points="1900.31,-265.5 1910.31,-262 1900.31,-258.5 1900.31,-265.5"/>
</g>
<!-- HealthModule -->
<g id="node5" class="node">
<title>HealthModule</title>
<polygon fill="#8dd3c7" stroke="black" points="1784.37,-198 1781.37,-202 1760.37,-202 1757.37,-198 1687.63,-198 1687.63,-162 1784.37,-162 1784.37,-198"/>
<text text-anchor="middle" x="1736" y="-175.8" font-family="Times,serif" font-size="14.00">HealthModule</text>
</g>
<!-- HealthModule&#45;&gt;AppModule -->
<g id="edge5" class="edge">
<title>HealthModule&#45;&gt;AppModule</title>
<path fill="none" stroke="black" d="M1736,-198.03C1736,-217.58 1736,-246 1736,-246 1736,-246 1900.1,-246 1900.1,-246"/>
<polygon fill="black" stroke="black" points="1900.1,-249.5 1910.1,-246 1900.1,-242.5 1900.1,-249.5"/>
</g>
<!-- JobsModule -->
<g id="node6" class="node">
<title>JobsModule</title>
<polygon fill="#8dd3c7" stroke="black" points="1149.44,-198 1146.44,-202 1125.44,-202 1122.44,-198 1064.56,-198 1064.56,-162 1149.44,-162 1149.44,-198"/>
<text text-anchor="middle" x="1107" y="-175.8" font-family="Times,serif" font-size="14.00">JobsModule</text>
</g>
<!-- JobsModule&#45;&gt;AppModule -->
<g id="edge6" class="edge">
<title>JobsModule&#45;&gt;AppModule</title>
<path fill="none" stroke="black" d="M1107,-198.32C1107,-221.66 1107,-259 1107,-259 1107,-259 1900.1,-259 1900.1,-259"/>
<polygon fill="black" stroke="black" points="1900.1,-262.5 1910.1,-259 1900.1,-255.5 1900.1,-262.5"/>
</g>
<!-- MailModule -->
<g id="node7" class="node">
<title>MailModule</title>
<polygon fill="#8dd3c7" stroke="black" points="1252.99,-198 1249.99,-202 1228.99,-202 1225.99,-198 1167.01,-198 1167.01,-162 1252.99,-162 1252.99,-198"/>
<text text-anchor="middle" x="1210" y="-175.8" font-family="Times,serif" font-size="14.00">MailModule</text>
</g>
<!-- MailModule&#45;&gt;AppModule -->
<g id="edge7" class="edge">
<title>MailModule&#45;&gt;AppModule</title>
<path fill="none" stroke="black" d="M1210,-198.01C1210,-220.49 1210,-256 1210,-256 1210,-256 1900.25,-256 1900.25,-256"/>
<polygon fill="black" stroke="black" points="1900.25,-259.5 1910.25,-256 1900.25,-252.5 1900.25,-259.5"/>
</g>
<!-- PermissionsModule -->
<g id="node8" class="node">
<title>PermissionsModule</title>
<polygon fill="#8dd3c7" stroke="black" points="1398.71,-198 1395.71,-202 1374.71,-202 1371.71,-198 1271.29,-198 1271.29,-162 1398.71,-162 1398.71,-198"/>
<text text-anchor="middle" x="1335" y="-175.8" font-family="Times,serif" font-size="14.00">PermissionsModule</text>
</g>
<!-- PermissionsModule&#45;&gt;AppModule -->
<g id="edge8" class="edge">
<title>PermissionsModule&#45;&gt;AppModule</title>
<path fill="none" stroke="black" d="M1335,-198.29C1335,-220.21 1335,-254 1335,-254 1335,-254 1900.08,-254 1900.08,-254"/>
<polygon fill="black" stroke="black" points="1900.08,-257.5 1910.08,-254 1900.08,-250.5 1900.08,-257.5"/>
</g>
<!-- ResumesModule -->
<g id="node9" class="node">
<title>ResumesModule</title>
<polygon fill="#8dd3c7" stroke="black" points="1527.1,-198 1524.1,-202 1503.1,-202 1500.1,-198 1416.9,-198 1416.9,-162 1527.1,-162 1527.1,-198"/>
<text text-anchor="middle" x="1472" y="-175.8" font-family="Times,serif" font-size="14.00">ResumesModule</text>
</g>
<!-- ResumesModule&#45;&gt;AppModule -->
<g id="edge9" class="edge">
<title>ResumesModule&#45;&gt;AppModule</title>
<path fill="none" stroke="black" d="M1472,-198.28C1472,-219.32 1472,-251 1472,-251 1472,-251 1900.24,-251 1900.24,-251"/>
<polygon fill="black" stroke="black" points="1900.24,-254.5 1910.24,-251 1900.24,-247.5 1900.24,-254.5"/>
</g>
<!-- RolesModule -->
<g id="node10" class="node">
<title>RolesModule</title>
<polygon fill="#8dd3c7" stroke="black" points="1893.94,-198 1890.94,-202 1869.94,-202 1866.94,-198 1802.06,-198 1802.06,-162 1893.94,-162 1893.94,-198"/>
<text text-anchor="middle" x="1848" y="-175.8" font-family="Times,serif" font-size="14.00">RolesModule</text>
</g>
<!-- RolesModule&#45;&gt;AuthModule -->
<g id="edge14" class="edge">
<title>RolesModule&#45;&gt;AuthModule</title>
<path fill="none" stroke="black" d="M1825.14,-198.17C1825.14,-217.09 1825.14,-244 1825.14,-244 1825.14,-244 673.6,-244 673.6,-244"/>
<polygon fill="black" stroke="black" points="673.6,-240.5 663.6,-244 673.6,-247.5 673.6,-240.5"/>
</g>
<!-- RolesModule&#45;&gt;AppModule -->
<g id="edge10" class="edge">
<title>RolesModule&#45;&gt;AppModule</title>
<path fill="none" stroke="black" d="M1894.03,-180C1905.34,-180 1914.28,-180 1914.28,-180 1914.28,-180 1914.28,-227.99 1914.28,-227.99"/>
<polygon fill="black" stroke="black" points="1910.78,-227.99 1914.28,-237.99 1917.78,-227.99 1910.78,-227.99"/>
</g>
<!-- RolesService  -->
<g id="node27" class="node">
<title>RolesService </title>
<polygon fill="#fb8072" stroke="black" points="2313.86,-274 2220.14,-274 2220.14,-238 2313.86,-238 2313.86,-274"/>
<text text-anchor="middle" x="2267" y="-251.8" font-family="Times,serif" font-size="14.00">RolesService </text>
</g>
<!-- RolesModule&#45;&gt;RolesService  -->
<g id="edge28" class="edge">
<title>RolesModule&#45;&gt;RolesService </title>
<path fill="none" stroke="black" stroke-dasharray="5,2" d="M1848,-198.11C1848,-207.9 1848,-218 1848,-218 1848,-218 2267,-218 2267,-218 2267,-218 2267,-227.89 2267,-227.89"/>
<polygon fill="black" stroke="black" points="2263.5,-227.89 2267,-237.89 2270.5,-227.89 2263.5,-227.89"/>
</g>
<!-- SubscribersModule -->
<g id="node11" class="node">
<title>SubscribersModule</title>
<polygon fill="#8dd3c7" stroke="black" points="1669.36,-198 1666.36,-202 1645.36,-202 1642.36,-198 1544.64,-198 1544.64,-162 1669.36,-162 1669.36,-198"/>
<text text-anchor="middle" x="1607" y="-175.8" font-family="Times,serif" font-size="14.00">SubscribersModule</text>
</g>
<!-- SubscribersModule&#45;&gt;AppModule -->
<g id="edge11" class="edge">
<title>SubscribersModule&#45;&gt;AppModule</title>
<path fill="none" stroke="black" d="M1607,-198.13C1607,-218.57 1607,-249 1607,-249 1607,-249 1900.04,-249 1900.04,-249"/>
<polygon fill="black" stroke="black" points="1900.04,-252.5 1910.04,-249 1900.04,-245.5 1900.04,-252.5"/>
</g>
<!-- UsersModule -->
<g id="node12" class="node">
<title>UsersModule</title>
<polygon fill="#8dd3c7" stroke="black" points="941.92,-198 938.92,-202 917.92,-202 914.92,-198 850.08,-198 850.08,-162 941.92,-162 941.92,-198"/>
<text text-anchor="middle" x="896" y="-175.8" font-family="Times,serif" font-size="14.00">UsersModule</text>
</g>
<!-- UsersModule&#45;&gt;AuthModule -->
<g id="edge15" class="edge">
<title>UsersModule&#45;&gt;AuthModule</title>
<path fill="none" stroke="black" d="M896,-198.3C896,-216.27 896,-241 896,-241 896,-241 673.73,-241 673.73,-241"/>
<polygon fill="black" stroke="black" points="673.73,-237.5 663.73,-241 673.73,-244.5 673.73,-237.5"/>
</g>
<!-- UsersModule&#45;&gt;AppModule -->
<g id="edge12" class="edge">
<title>UsersModule&#45;&gt;AppModule</title>
<path fill="none" stroke="black" d="M918.86,-198.23C918.86,-222.93 918.86,-264 918.86,-264 918.86,-264 1900.22,-264 1900.22,-264"/>
<polygon fill="black" stroke="black" points="1900.22,-267.5 1910.22,-264 1900.22,-260.5 1900.22,-267.5"/>
</g>
<!-- UsersService  -->
<g id="node30" class="node">
<title>UsersService </title>
<polygon fill="#fb8072" stroke="black" points="2447.85,-274 2354.15,-274 2354.15,-238 2447.85,-238 2447.85,-274"/>
<text text-anchor="middle" x="2401" y="-251.8" font-family="Times,serif" font-size="14.00">UsersService </text>
</g>
<!-- UsersModule&#45;&gt;UsersService  -->
<g id="edge31" class="edge">
<title>UsersModule&#45;&gt;UsersService </title>
<path fill="none" stroke="black" stroke-dasharray="5,2" d="M873.14,-198.21C873.14,-203.55 873.14,-208 873.14,-208 873.14,-208 2401,-208 2401,-208 2401,-208 2401,-227.85 2401,-227.85"/>
<polygon fill="black" stroke="black" points="2397.5,-227.85 2401,-237.85 2404.5,-227.85 2397.5,-227.85"/>
</g>
<!-- AppService -->
<g id="node14" class="node">
<title>AppService</title>
<ellipse fill="#fdb462" stroke="black" cx="1975" cy="-180" rx="56.74" ry="18"/>
<text text-anchor="middle" x="1975" y="-175.8" font-family="Times,serif" font-size="14.00">AppService</text>
</g>
<!-- AppService&#45;&gt;AppModule -->
<g id="edge13" class="edge">
<title>AppService&#45;&gt;AppModule</title>
<path fill="none" stroke="black" d="M1956.1,-197.25C1956.1,-197.25 1956.1,-227.76 1956.1,-227.76"/>
<polygon fill="black" stroke="black" points="1952.6,-227.76 1956.1,-237.76 1959.6,-227.76 1952.6,-227.76"/>
</g>
<!-- AuthService -->
<g id="node16" class="node">
<title>AuthService</title>
<ellipse fill="#fdb462" stroke="black" cx="363" cy="-180" rx="59.11" ry="18"/>
<text text-anchor="middle" x="363" y="-175.8" font-family="Times,serif" font-size="14.00">AuthService</text>
</g>
<!-- AuthService&#45;&gt;AuthModule -->
<g id="edge17" class="edge">
<title>AuthService&#45;&gt;AuthModule</title>
<path fill="none" stroke="black" d="M363,-198.04C363,-219.66 363,-253 363,-253 363,-253 566.4,-253 566.4,-253"/>
<polygon fill="black" stroke="black" points="566.4,-256.5 576.4,-253 566.4,-249.5 566.4,-256.5"/>
</g>
<!-- JwtStrategy -->
<g id="node17" class="node">
<title>JwtStrategy</title>
<ellipse fill="#fdb462" stroke="black" cx="229" cy="-180" rx="56.76" ry="18"/>
<text text-anchor="middle" x="229" y="-175.8" font-family="Times,serif" font-size="14.00">JwtStrategy</text>
</g>
<!-- JwtStrategy&#45;&gt;AuthModule -->
<g id="edge18" class="edge">
<title>JwtStrategy&#45;&gt;AuthModule</title>
<path fill="none" stroke="black" d="M229,-198.15C229,-221.76 229,-260 229,-260 229,-260 566.29,-260 566.29,-260"/>
<polygon fill="black" stroke="black" points="566.29,-263.5 576.29,-260 566.29,-256.5 566.29,-263.5"/>
</g>
<!-- LocalStrategy -->
<g id="node18" class="node">
<title>LocalStrategy</title>
<ellipse fill="#fdb462" stroke="black" cx="89" cy="-180" rx="65.41" ry="18"/>
<text text-anchor="middle" x="89" y="-175.8" font-family="Times,serif" font-size="14.00">LocalStrategy</text>
</g>
<!-- LocalStrategy&#45;&gt;AuthModule -->
<g id="edge19" class="edge">
<title>LocalStrategy&#45;&gt;AuthModule</title>
<path fill="none" stroke="black" d="M89,-198.03C89,-223.51 89,-267 89,-267 89,-267 566.09,-267 566.09,-267"/>
<polygon fill="black" stroke="black" points="566.09,-270.5 576.09,-267 566.09,-263.5 566.09,-270.5"/>
</g>
<!-- CompaniesService -->
<g id="node19" class="node">
<title>CompaniesService</title>
<ellipse fill="#fdb462" stroke="black" cx="421" cy="-104" rx="83.38" ry="18"/>
<text text-anchor="middle" x="421" y="-99.8" font-family="Times,serif" font-size="14.00">CompaniesService</text>
</g>
<!-- CompaniesService&#45;&gt;CompaniesModule -->
<g id="edge20" class="edge">
<title>CompaniesService&#45;&gt;CompaniesModule</title>
<path fill="none" stroke="black" d="M504.48,-104C524.29,-104 539.8,-104 539.8,-104 539.8,-104 539.8,-180 539.8,-180 539.8,-180 565.72,-180 565.72,-180"/>
<polygon fill="black" stroke="black" points="565.72,-183.5 575.72,-180 565.72,-176.5 565.72,-183.5"/>
</g>
<!-- DatabasesService -->
<g id="node20" class="node">
<title>DatabasesService</title>
<ellipse fill="#fdb462" stroke="black" cx="623" cy="-104" rx="79.27" ry="18"/>
<text text-anchor="middle" x="623" y="-99.8" font-family="Times,serif" font-size="14.00">DatabasesService</text>
</g>
<!-- DatabasesService&#45;&gt;DatabasesModule -->
<g id="edge21" class="edge">
<title>DatabasesService&#45;&gt;DatabasesModule</title>
<path fill="none" stroke="black" d="M702.25,-104C706.45,-104 708.99,-104 708.99,-104 708.99,-104 708.99,-180 708.99,-180 708.99,-180 709.64,-180 709.64,-180"/>
<polygon fill="black" stroke="black" points="705.46,-183.5 715.46,-180 705.46,-176.5 705.46,-183.5"/>
</g>
<!-- UsersService -->
<g id="node21" class="node">
<title>UsersService</title>
<ellipse fill="#fdb462" stroke="black" cx="782" cy="-104" rx="61.95" ry="18"/>
<text text-anchor="middle" x="782" y="-99.8" font-family="Times,serif" font-size="14.00">UsersService</text>
</g>
<!-- UsersService&#45;&gt;DatabasesModule -->
<g id="edge22" class="edge">
<title>UsersService&#45;&gt;DatabasesModule</title>
<path fill="none" stroke="black" d="M776.09,-122.01C776.09,-122.01 776.09,-151.85 776.09,-151.85"/>
<polygon fill="black" stroke="black" points="772.59,-151.85 776.09,-161.85 779.59,-151.85 772.59,-151.85"/>
</g>
<!-- UsersService&#45;&gt;UsersModule -->
<g id="edge32" class="edge">
<title>UsersService&#45;&gt;UsersModule</title>
<path fill="none" stroke="black" d="M838.06,-111.85C838.06,-131.26 838.06,-180 838.06,-180 838.06,-180 840.07,-180 840.07,-180"/>
<polygon fill="black" stroke="black" points="840.07,-183.5 850.07,-180 840.07,-176.5 840.07,-183.5"/>
</g>
<!-- FilesService -->
<g id="node22" class="node">
<title>FilesService</title>
<ellipse fill="#fdb462" stroke="black" cx="943" cy="-104" rx="58.54" ry="18"/>
<text text-anchor="middle" x="943" y="-99.8" font-family="Times,serif" font-size="14.00">FilesService</text>
</g>
<!-- FilesService&#45;&gt;FilesModule -->
<g id="edge23" class="edge">
<title>FilesService&#45;&gt;FilesModule</title>
<path fill="none" stroke="black" d="M980.69,-117.94C980.69,-117.94 980.69,-151.84 980.69,-151.84"/>
<polygon fill="black" stroke="black" points="977.19,-151.84 980.69,-161.84 984.19,-151.84 977.19,-151.84"/>
</g>
<!-- JobsService -->
<g id="node23" class="node">
<title>JobsService</title>
<ellipse fill="#fdb462" stroke="black" cx="1099" cy="-104" rx="57.32" ry="18"/>
<text text-anchor="middle" x="1099" y="-99.8" font-family="Times,serif" font-size="14.00">JobsService</text>
</g>
<!-- JobsService&#45;&gt;JobsModule -->
<g id="edge24" class="edge">
<title>JobsService&#45;&gt;JobsModule</title>
<path fill="none" stroke="black" d="M1107,-122.01C1107,-122.01 1107,-151.85 1107,-151.85"/>
<polygon fill="black" stroke="black" points="1103.5,-151.85 1107,-161.85 1110.5,-151.85 1103.5,-151.85"/>
</g>
<!-- MailService -->
<g id="node24" class="node">
<title>MailService</title>
<ellipse fill="#fdb462" stroke="black" cx="1254" cy="-104" rx="58.46" ry="18"/>
<text text-anchor="middle" x="1254" y="-99.8" font-family="Times,serif" font-size="14.00">MailService</text>
</g>
<!-- MailService&#45;&gt;MailModule -->
<g id="edge25" class="edge">
<title>MailService&#45;&gt;MailModule</title>
<path fill="none" stroke="black" d="M1224.38,-119.75C1224.38,-119.75 1224.38,-151.87 1224.38,-151.87"/>
<polygon fill="black" stroke="black" points="1220.88,-151.87 1224.38,-161.87 1227.88,-151.87 1220.88,-151.87"/>
</g>
<!-- PermissionsService -->
<g id="node25" class="node">
<title>PermissionsService</title>
<ellipse fill="#fdb462" stroke="black" cx="1439" cy="-104" rx="86.83" ry="18"/>
<text text-anchor="middle" x="1439" y="-99.8" font-family="Times,serif" font-size="14.00">PermissionsService</text>
</g>
<!-- PermissionsService&#45;&gt;PermissionsModule -->
<g id="edge26" class="edge">
<title>PermissionsService&#45;&gt;PermissionsModule</title>
<path fill="none" stroke="black" d="M1375.47,-116.55C1375.47,-116.55 1375.47,-151.74 1375.47,-151.74"/>
<polygon fill="black" stroke="black" points="1371.97,-151.74 1375.47,-161.74 1378.97,-151.74 1371.97,-151.74"/>
</g>
<!-- ResumesService -->
<g id="node26" class="node">
<title>ResumesService</title>
<ellipse fill="#fdb462" stroke="black" cx="1641" cy="-104" rx="74.71" ry="18"/>
<text text-anchor="middle" x="1641" y="-99.8" font-family="Times,serif" font-size="14.00">ResumesService</text>
</g>
<!-- ResumesService&#45;&gt;ResumesModule -->
<g id="edge27" class="edge">
<title>ResumesService&#45;&gt;ResumesModule</title>
<path fill="none" stroke="black" d="M1565.95,-104C1548.95,-104 1535.81,-104 1535.81,-104 1535.81,-104 1535.81,-180 1535.81,-180 1535.81,-180 1534.95,-180 1534.95,-180"/>
<polygon fill="black" stroke="black" points="1537.2,-176.5 1527.2,-180 1537.2,-183.5 1537.2,-176.5"/>
</g>
<!-- RolesService -->
<g id="node28" class="node">
<title>RolesService</title>
<ellipse fill="#fdb462" stroke="black" cx="2134" cy="-256" rx="61.97" ry="18"/>
<text text-anchor="middle" x="2134" y="-251.8" font-family="Times,serif" font-size="14.00">RolesService</text>
</g>
<!-- RolesService&#45;&gt;RolesModule -->
<g id="edge29" class="edge">
<title>RolesService&#45;&gt;RolesModule</title>
<path fill="none" stroke="black" d="M2134,-237.79C2134,-232.45 2134,-228 2134,-228 2134,-228 1870.86,-228 1870.86,-228 1870.86,-228 1870.86,-208.15 1870.86,-208.15"/>
<polygon fill="black" stroke="black" points="1874.36,-208.15 1870.86,-198.15 1867.36,-208.15 1874.36,-208.15"/>
</g>
<!-- SubscribersService -->
<g id="node29" class="node">
<title>SubscribersService</title>
<ellipse fill="#fdb462" stroke="black" cx="1841" cy="-104" rx="85.09" ry="18"/>
<text text-anchor="middle" x="1841" y="-99.8" font-family="Times,serif" font-size="14.00">SubscribersService</text>
</g>
<!-- SubscribersService&#45;&gt;SubscribersModule -->
<g id="edge30" class="edge">
<title>SubscribersService&#45;&gt;SubscribersModule</title>
<path fill="none" stroke="black" d="M1770.19,-113.98C1770.19,-125.24 1770.19,-142 1770.19,-142 1770.19,-142 1617.79,-142 1617.79,-142 1617.79,-142 1617.79,-151.89 1617.79,-151.89"/>
<polygon fill="black" stroke="black" points="1614.29,-151.89 1617.79,-161.89 1621.29,-151.89 1614.29,-151.89"/>
</g>
</g>
</svg>
