<?xml version="1.0" encoding="UTF-8" standalone="no"?>
<!DOCTYPE svg PUBLIC "-//W3C//DTD SVG 1.1//EN"
 "http://www.w3.org/Graphics/SVG/1.1/DTD/svg11.dtd">
<!-- Generated by graphviz version 2.47.0 (20210316.0004)
 -->
<!-- Title: dependencies Pages: 1 -->
<svg width="504pt" height="211pt"
 viewBox="0.00 0.00 504.00 211.00" xmlns="http://www.w3.org/2000/svg" xmlns:xlink="http://www.w3.org/1999/xlink">
<g id="graph0" class="graph" transform="scale(1 1) rotate(0) translate(4 207)">
<title>dependencies</title>
<polygon fill="white" stroke="transparent" points="-4,4 -4,-207 500,-207 500,4 -4,4"/>
<text text-anchor="start" x="227.01" y="-42.4" font-family="Times-12" font-weight="bold" font-size="14.00">Legend</text>
<polygon fill="#ffffb3" stroke="transparent" points="14,-10 14,-30 34,-30 34,-10 14,-10"/>
<text text-anchor="start" x="37.63" y="-15.4" font-family="Times-12" font-size="14.00"> &#160;Declarations</text>
<polygon fill="#8dd3c7" stroke="transparent" points="127,-10 127,-30 147,-30 147,-10 127,-10"/>
<text text-anchor="start" x="150.73" y="-15.4" font-family="Times-12" font-size="14.00"> &#160;Module</text>
<polygon fill="#80b1d3" stroke="transparent" points="213,-10 213,-30 233,-30 233,-10 213,-10"/>
<text text-anchor="start" x="236.78" y="-15.4" font-family="Times-12" font-size="14.00"> &#160;Bootstrap</text>
<polygon fill="#fdb462" stroke="transparent" points="310,-10 310,-30 330,-30 330,-10 310,-10"/>
<text text-anchor="start" x="333.67" y="-15.4" font-family="Times-12" font-size="14.00"> &#160;Providers</text>
<polygon fill="#fb8072" stroke="transparent" points="406,-10 406,-30 426,-30 426,-10 406,-10"/>
<text text-anchor="start" x="429.73" y="-15.4" font-family="Times-12" font-size="14.00"> &#160;Exports</text>
<g id="clust1" class="cluster">
<title>cluster_DatabasesModule</title>
<polygon fill="none" stroke="black" stroke-dasharray="1,5" points="82,-70 82,-195 414,-195 414,-70 82,-70"/>
</g>
<g id="clust6" class="cluster">
<title>cluster_DatabasesModule_providers</title>
<polygon fill="none" stroke="black" points="90,-78 90,-130 406,-130 406,-78 90,-78"/>
</g>
<!-- DatabasesService -->
<g id="node1" class="node">
<title>DatabasesService</title>
<ellipse fill="#fdb462" stroke="black" cx="319" cy="-104" rx="79.27" ry="18"/>
<text text-anchor="middle" x="319" y="-99.8" font-family="Times,serif" font-size="14.00">DatabasesService</text>
</g>
<!-- DatabasesModule -->
<g id="node3" class="node">
<title>DatabasesModule</title>
<polygon fill="#8dd3c7" stroke="black" points="297.29,-187 294.29,-191 273.29,-191 270.29,-187 180.71,-187 180.71,-151 297.29,-151 297.29,-187"/>
<text text-anchor="middle" x="239" y="-164.8" font-family="Times,serif" font-size="14.00">DatabasesModule</text>
</g>
<!-- DatabasesService&#45;&gt;DatabasesModule -->
<g id="edge1" class="edge">
<title>DatabasesService&#45;&gt;DatabasesModule</title>
<path fill="none" stroke="black" d="M268.51,-118.1C268.51,-118.1 268.51,-140.72 268.51,-140.72"/>
<polygon fill="black" stroke="black" points="265.01,-140.72 268.51,-150.72 272.01,-140.72 265.01,-140.72"/>
</g>
<!-- UsersService -->
<g id="node2" class="node">
<title>UsersService</title>
<ellipse fill="#fdb462" stroke="black" cx="160" cy="-104" rx="61.95" ry="18"/>
<text text-anchor="middle" x="160" y="-99.8" font-family="Times,serif" font-size="14.00">UsersService</text>
</g>
<!-- UsersService&#45;&gt;DatabasesModule -->
<g id="edge2" class="edge">
<title>UsersService&#45;&gt;DatabasesModule</title>
<path fill="none" stroke="black" d="M201.41,-117.47C201.41,-117.47 201.41,-140.86 201.41,-140.86"/>
<polygon fill="black" stroke="black" points="197.91,-140.86 201.41,-150.86 204.91,-140.86 197.91,-140.86"/>
</g>
</g>
</svg>
